<?xml version="1.0" encoding="UTF-8"?>
<svg xmlns="http://www.w3.org/2000/svg" xmlns:xlink="http://www.w3.org/1999/xlink" width="3001" height="3001" viewBox="0 0 2900 2900">
<defs>
<clipPath id="clip-0">
<path clip-rule="nonzero" d="M 704 611 L 2417 611 L 2417 2323 L 704 2323 Z M 704 611 "/>
</clipPath>
<clipPath id="clip-1">
<path clip-rule="nonzero" d="M 1560.589844 611.539062 C 2033.160156 611.539062 2416.25 994.628906 2416.25 1467.199219 C 2416.25 1939.761719 2033.160156 2322.859375 1560.589844 2322.859375 C 1088.03125 2322.859375 704.9375 1939.761719 704.9375 1467.199219 C 704.9375 994.628906 1088.03125 611.539062 1560.589844 611.539062 Z M 1560.589844 611.539062 "/>
</clipPath>
<clipPath id="clip-2">
<path clip-rule="nonzero" d="M 1560.589844 611.539062 C 2033.160156 611.539062 2416.25 994.628906 2416.25 1467.199219 C 2416.25 1939.761719 2033.160156 2322.859375 1560.589844 2322.859375 C 1088.03125 2322.859375 704.9375 1939.761719 704.9375 1467.199219 C 704.9375 994.628906 1088.03125 611.539062 1560.589844 611.539062 "/>
</clipPath>
<linearGradient id="linear-pattern-0" gradientUnits="userSpaceOnUse" x1="-0.749943" y1="0" x2="1.750165" y2="0" gradientTransform="matrix(633.993, -728.452, -728.452, -633.993, 1243.53, 1831.51)">
<stop offset="0" stop-color="rgb(98.431396%, 52.940369%, 4.705811%)" stop-opacity="1"/>
<stop offset="0.25" stop-color="rgb(98.431396%, 52.940369%, 4.705811%)" stop-opacity="1"/>
<stop offset="0.28125" stop-color="rgb(98.431396%, 52.940369%, 4.705811%)" stop-opacity="1"/>
<stop offset="0.296875" stop-color="rgb(98.431396%, 52.940369%, 4.705811%)" stop-opacity="1"/>
<stop offset="0.304688" stop-color="rgb(98.406982%, 53.08075%, 4.711914%)" stop-opacity="1"/>
<stop offset="0.308594" stop-color="rgb(98.345947%, 53.456116%, 4.730225%)" stop-opacity="1"/>
<stop offset="0.3125" stop-color="rgb(98.3078%, 53.689575%, 4.742432%)" stop-opacity="1"/>
<stop offset="0.316406" stop-color="rgb(98.269653%, 53.923035%, 4.753113%)" stop-opacity="1"/>
<stop offset="0.320312" stop-color="rgb(98.231506%, 54.15802%, 4.76532%)" stop-opacity="1"/>
<stop offset="0.324219" stop-color="rgb(98.193359%, 54.391479%, 4.776001%)" stop-opacity="1"/>
<stop offset="0.328125" stop-color="rgb(98.155212%, 54.624939%, 4.788208%)" stop-opacity="1"/>
<stop offset="0.332031" stop-color="rgb(98.11554%, 54.858398%, 4.798889%)" stop-opacity="1"/>
<stop offset="0.335938" stop-color="rgb(98.077393%, 55.091858%, 4.811096%)" stop-opacity="1"/>
<stop offset="0.339844" stop-color="rgb(98.039246%, 55.325317%, 4.821777%)" stop-opacity="1"/>
<stop offset="0.34375" stop-color="rgb(98.001099%, 55.558777%, 4.833984%)" stop-opacity="1"/>
<stop offset="0.347656" stop-color="rgb(97.962952%, 55.792236%, 4.844666%)" stop-opacity="1"/>
<stop offset="0.351562" stop-color="rgb(97.924805%, 56.025696%, 4.856873%)" stop-opacity="1"/>
<stop offset="0.355469" stop-color="rgb(97.886658%, 56.259155%, 4.867554%)" stop-opacity="1"/>
<stop offset="0.359375" stop-color="rgb(97.848511%, 56.494141%, 4.879761%)" stop-opacity="1"/>
<stop offset="0.363281" stop-color="rgb(97.810364%, 56.7276%, 4.890442%)" stop-opacity="1"/>
<stop offset="0.367188" stop-color="rgb(97.772217%, 56.96106%, 4.902649%)" stop-opacity="1"/>
<stop offset="0.371094" stop-color="rgb(97.732544%, 57.194519%, 4.91333%)" stop-opacity="1"/>
<stop offset="0.375" stop-color="rgb(97.694397%, 57.427979%, 4.925537%)" stop-opacity="1"/>
<stop offset="0.378906" stop-color="rgb(97.65625%, 57.661438%, 4.936218%)" stop-opacity="1"/>
<stop offset="0.382812" stop-color="rgb(97.618103%, 57.894897%, 4.948425%)" stop-opacity="1"/>
<stop offset="0.386719" stop-color="rgb(97.579956%, 58.128357%, 4.959106%)" stop-opacity="1"/>
<stop offset="0.390625" stop-color="rgb(97.541809%, 58.361816%, 4.971313%)" stop-opacity="1"/>
<stop offset="0.394531" stop-color="rgb(97.503662%, 58.595276%, 4.981995%)" stop-opacity="1"/>
<stop offset="0.398438" stop-color="rgb(97.465515%, 58.830261%, 4.994202%)" stop-opacity="1"/>
<stop offset="0.402344" stop-color="rgb(97.427368%, 59.063721%, 5.004883%)" stop-opacity="1"/>
<stop offset="0.40625" stop-color="rgb(97.389221%, 59.29718%, 5.01709%)" stop-opacity="1"/>
<stop offset="0.410156" stop-color="rgb(97.349548%, 59.53064%, 5.027771%)" stop-opacity="1"/>
<stop offset="0.414062" stop-color="rgb(97.311401%, 59.764099%, 5.039978%)" stop-opacity="1"/>
<stop offset="0.417969" stop-color="rgb(97.273254%, 59.997559%, 5.052185%)" stop-opacity="1"/>
<stop offset="0.421875" stop-color="rgb(97.235107%, 60.231018%, 5.064392%)" stop-opacity="1"/>
<stop offset="0.425781" stop-color="rgb(97.19696%, 60.464478%, 5.075073%)" stop-opacity="1"/>
<stop offset="0.429688" stop-color="rgb(97.158813%, 60.699463%, 5.08728%)" stop-opacity="1"/>
<stop offset="0.433594" stop-color="rgb(97.120667%, 60.932922%, 5.097961%)" stop-opacity="1"/>
<stop offset="0.4375" stop-color="rgb(97.08252%, 61.166382%, 5.110168%)" stop-opacity="1"/>
<stop offset="0.441406" stop-color="rgb(97.044373%, 61.399841%, 5.12085%)" stop-opacity="1"/>
<stop offset="0.445312" stop-color="rgb(97.006226%, 61.633301%, 5.133057%)" stop-opacity="1"/>
<stop offset="0.449219" stop-color="rgb(96.966553%, 61.86676%, 5.143738%)" stop-opacity="1"/>
<stop offset="0.453125" stop-color="rgb(96.928406%, 62.10022%, 5.155945%)" stop-opacity="1"/>
<stop offset="0.457031" stop-color="rgb(96.890259%, 62.333679%, 5.166626%)" stop-opacity="1"/>
<stop offset="0.460938" stop-color="rgb(96.852112%, 62.567139%, 5.178833%)" stop-opacity="1"/>
<stop offset="0.464844" stop-color="rgb(96.813965%, 62.800598%, 5.189514%)" stop-opacity="1"/>
<stop offset="0.46875" stop-color="rgb(96.775818%, 63.035583%, 5.201721%)" stop-opacity="1"/>
<stop offset="0.472656" stop-color="rgb(96.737671%, 63.269043%, 5.212402%)" stop-opacity="1"/>
<stop offset="0.476562" stop-color="rgb(96.699524%, 63.502502%, 5.224609%)" stop-opacity="1"/>
<stop offset="0.480469" stop-color="rgb(96.661377%, 63.735962%, 5.235291%)" stop-opacity="1"/>
<stop offset="0.484375" stop-color="rgb(96.62323%, 63.969421%, 5.247498%)" stop-opacity="1"/>
<stop offset="0.488281" stop-color="rgb(96.583557%, 64.202881%, 5.258179%)" stop-opacity="1"/>
<stop offset="0.492188" stop-color="rgb(96.54541%, 64.43634%, 5.270386%)" stop-opacity="1"/>
<stop offset="0.496094" stop-color="rgb(96.507263%, 64.6698%, 5.281067%)" stop-opacity="1"/>
<stop offset="0.5" stop-color="rgb(96.469116%, 64.903259%, 5.293274%)" stop-opacity="1"/>
<stop offset="0.503906" stop-color="rgb(96.430969%, 65.136719%, 5.303955%)" stop-opacity="1"/>
<stop offset="0.507812" stop-color="rgb(96.392822%, 65.371704%, 5.316162%)" stop-opacity="1"/>
<stop offset="0.511719" stop-color="rgb(96.354675%, 65.605164%, 5.326843%)" stop-opacity="1"/>
<stop offset="0.515625" stop-color="rgb(96.316528%, 65.838623%, 5.33905%)" stop-opacity="1"/>
<stop offset="0.519531" stop-color="rgb(96.278381%, 66.072083%, 5.349731%)" stop-opacity="1"/>
<stop offset="0.523438" stop-color="rgb(96.240234%, 66.305542%, 5.361938%)" stop-opacity="1"/>
<stop offset="0.527344" stop-color="rgb(96.200562%, 66.539001%, 5.37262%)" stop-opacity="1"/>
<stop offset="0.53125" stop-color="rgb(96.162415%, 66.772461%, 5.384827%)" stop-opacity="1"/>
<stop offset="0.535156" stop-color="rgb(96.124268%, 67.00592%, 5.395508%)" stop-opacity="1"/>
<stop offset="0.539062" stop-color="rgb(96.086121%, 67.23938%, 5.407715%)" stop-opacity="1"/>
<stop offset="0.542969" stop-color="rgb(96.047974%, 67.472839%, 5.418396%)" stop-opacity="1"/>
<stop offset="0.546875" stop-color="rgb(96.009827%, 67.707825%, 5.430603%)" stop-opacity="1"/>
<stop offset="0.550781" stop-color="rgb(95.97168%, 67.941284%, 5.44281%)" stop-opacity="1"/>
<stop offset="0.554688" stop-color="rgb(95.933533%, 68.174744%, 5.455017%)" stop-opacity="1"/>
<stop offset="0.558594" stop-color="rgb(95.895386%, 68.408203%, 5.465698%)" stop-opacity="1"/>
<stop offset="0.5625" stop-color="rgb(95.857239%, 68.641663%, 5.477905%)" stop-opacity="1"/>
<stop offset="0.566406" stop-color="rgb(95.817566%, 68.875122%, 5.488586%)" stop-opacity="1"/>
<stop offset="0.570312" stop-color="rgb(95.779419%, 69.108582%, 5.500793%)" stop-opacity="1"/>
<stop offset="0.574219" stop-color="rgb(95.741272%, 69.342041%, 5.511475%)" stop-opacity="1"/>
<stop offset="0.578125" stop-color="rgb(95.703125%, 69.5755%, 5.523682%)" stop-opacity="1"/>
<stop offset="0.582031" stop-color="rgb(95.664978%, 69.80896%, 5.534363%)" stop-opacity="1"/>
<stop offset="0.585938" stop-color="rgb(95.626831%, 70.043945%, 5.54657%)" stop-opacity="1"/>
<stop offset="0.589844" stop-color="rgb(95.588684%, 70.277405%, 5.557251%)" stop-opacity="1"/>
<stop offset="0.59375" stop-color="rgb(95.550537%, 70.510864%, 5.569458%)" stop-opacity="1"/>
<stop offset="0.597656" stop-color="rgb(95.51239%, 70.744324%, 5.580139%)" stop-opacity="1"/>
<stop offset="0.601562" stop-color="rgb(95.474243%, 70.977783%, 5.592346%)" stop-opacity="1"/>
<stop offset="0.605469" stop-color="rgb(95.43457%, 71.211243%, 5.603027%)" stop-opacity="1"/>
<stop offset="0.609375" stop-color="rgb(95.396423%, 71.444702%, 5.615234%)" stop-opacity="1"/>
<stop offset="0.613281" stop-color="rgb(95.358276%, 71.678162%, 5.625916%)" stop-opacity="1"/>
<stop offset="0.617188" stop-color="rgb(95.320129%, 71.913147%, 5.638123%)" stop-opacity="1"/>
<stop offset="0.621094" stop-color="rgb(95.281982%, 72.146606%, 5.648804%)" stop-opacity="1"/>
<stop offset="0.625" stop-color="rgb(95.243835%, 72.380066%, 5.661011%)" stop-opacity="1"/>
<stop offset="0.628906" stop-color="rgb(95.205688%, 72.613525%, 5.671692%)" stop-opacity="1"/>
<stop offset="0.632812" stop-color="rgb(95.167542%, 72.846985%, 5.683899%)" stop-opacity="1"/>
<stop offset="0.636719" stop-color="rgb(95.129395%, 73.080444%, 5.69458%)" stop-opacity="1"/>
<stop offset="0.640625" stop-color="rgb(95.091248%, 73.313904%, 5.706787%)" stop-opacity="1"/>
<stop offset="0.644531" stop-color="rgb(95.051575%, 73.547363%, 5.717468%)" stop-opacity="1"/>
<stop offset="0.648438" stop-color="rgb(95.013428%, 73.780823%, 5.729675%)" stop-opacity="1"/>
<stop offset="0.652344" stop-color="rgb(94.975281%, 74.014282%, 5.740356%)" stop-opacity="1"/>
<stop offset="0.65625" stop-color="rgb(94.937134%, 74.249268%, 5.752563%)" stop-opacity="1"/>
<stop offset="0.660156" stop-color="rgb(94.898987%, 74.482727%, 5.763245%)" stop-opacity="1"/>
<stop offset="0.664062" stop-color="rgb(94.86084%, 74.716187%, 5.775452%)" stop-opacity="1"/>
<stop offset="0.667969" stop-color="rgb(94.822693%, 74.949646%, 5.786133%)" stop-opacity="1"/>
<stop offset="0.671875" stop-color="rgb(94.784546%, 75.183105%, 5.79834%)" stop-opacity="1"/>
<stop offset="0.675781" stop-color="rgb(94.746399%, 75.416565%, 5.810547%)" stop-opacity="1"/>
<stop offset="0.679688" stop-color="rgb(94.708252%, 75.650024%, 5.822754%)" stop-opacity="1"/>
<stop offset="0.683594" stop-color="rgb(94.668579%, 75.883484%, 5.833435%)" stop-opacity="1"/>
<stop offset="0.6875" stop-color="rgb(94.630432%, 76.116943%, 5.845642%)" stop-opacity="1"/>
<stop offset="0.691406" stop-color="rgb(94.592285%, 76.350403%, 5.856323%)" stop-opacity="1"/>
<stop offset="0.695312" stop-color="rgb(94.554138%, 76.585388%, 5.86853%)" stop-opacity="1"/>
<stop offset="0.703125" stop-color="rgb(94.53125%, 76.722717%, 5.874634%)" stop-opacity="1"/>
<stop offset="0.71875" stop-color="rgb(94.508362%, 76.861572%, 5.882263%)" stop-opacity="1"/>
<stop offset="0.75" stop-color="rgb(94.508362%, 76.861572%, 5.882263%)" stop-opacity="1"/>
<stop offset="1" stop-color="rgb(94.508362%, 76.861572%, 5.882263%)" stop-opacity="1"/>
</linearGradient>
</defs>
<!-- <path fill-rule="nonzero" fill="rgb(100%, 100%, 100%)" fill-opacity="1" d="M 3000.5 3000.5 L 0.5 3000.5 L 0.5 0.5 L 3000.5 0.5 L 3000.5 3000.5 "/> -->
<path fill="none" stroke-width="10" stroke-linecap="butt" stroke-linejoin="miter" stroke="rgb(0%, 0%, 0%)" stroke-opacity="1" stroke-miterlimit="10" d="M 30005 5 L 5 5 L 5 30005 L 30005 30005 Z M 30005 5 " transform="matrix(0.1, 0, 0, -0.1, 0, 3001)"/>
<path fill-rule="nonzero" fill="rgb(18.431091%, 18.431091%, 23.535156%)" fill-opacity="1" d="M 1494.578125 518.441406 C 2036.96875 518.441406 2476.660156 958.128906 2476.660156 1500.511719 C 2476.660156 2042.898438 2036.96875 2482.589844 1494.578125 2482.589844 C 952.199219 2482.589844 512.507812 2042.898438 512.507812 1500.511719 C 512.507812 958.128906 952.199219 518.441406 1494.578125 518.441406 "/>
<path fill-rule="nonzero" fill="rgb(100%, 100%, 100%)" fill-opacity="1" d="M 1560.589844 539.300781 C 2073.058594 539.300781 2488.488281 954.730469 2488.488281 1467.199219 C 2488.488281 1979.660156 2073.058594 2395.089844 1560.589844 2395.089844 C 1048.128906 2395.089844 632.699219 1979.660156 632.699219 1467.199219 C 632.699219 954.730469 1048.128906 539.300781 1560.589844 539.300781 "/>
<g clip-path="url(#clip-0)">
<g clip-path="url(#clip-1)">
<g clip-path="url(#clip-2)">
<path fill-rule="nonzero" fill="url(#linear-pattern-0)" d="M 1678.671875 3170.328125 L -142.535156 1585.277344 L 1442.515625 -235.929688 L 3263.722656 1349.121094 Z M 1678.671875 3170.328125 "/>
</g>
</g>
</g>
<path fill-rule="nonzero" fill="rgb(18.431091%, 18.431091%, 23.535156%)" fill-opacity="1" d="M 1026.28125 1385.929688 C 1039.671875 1354.171875 1045.269531 1322.410156 1039.671875 1293.449219 C 1020.671875 1198.480469 1047.761719 1154.269531 1121.558594 1103.820312 C 1155.5 1080.78125 1210.609375 1042.480469 1241.128906 1015.699219 C 1243.621094 1013.519531 1245.800781 1011.660156 1247.660156 1009.789062 C 1246.730469 994.21875 1248.601562 978.648438 1257.628906 965.878906 C 1284.71875 926.339844 1356.960938 870.910156 1355.398438 859.078125 C 1353.53125 847.558594 1323.019531 847.558594 1304.328125 799.921875 C 1299.351562 787.46875 1290.628906 740.140625 1299.660156 722.699219 C 1306.820312 774.699219 1319.28125 789.019531 1320.53125 794.011719 C 1322.078125 801.171875 1377.820312 846.308594 1389.339844 843.511719 C 1400.859375 841.019531 1445.078125 789.648438 1445.078125 789.648438 C 1445.078125 789.648438 1427.019531 826.078125 1397.75 865.929688 C 1368.480469 905.789062 1308.691406 952.808594 1307.761719 968.691406 C 1307.761719 972.421875 1308.378906 978.960938 1309.628906 986.75 L 1314.300781 986.429688 C 1356.960938 968.371094 1424.519531 942.53125 1449.75 946.578125 C 1487.730469 952.488281 1577.410156 988.929688 1577.410156 988.929688 C 1577.410156 988.929688 1669.578125 900.179688 1679.539062 893.019531 C 1689.820312 885.550781 1701.648438 876.828125 1748.671875 879.628906 C 1825.890625 884.300781 1852.980469 888.660156 1879.128906 862.199219 C 1892.828125 848.179688 1903.421875 818.289062 1927.710938 791.828125 C 1919.609375 814.238281 1912.761719 837.601562 1904.660156 856.589844 C 1892.210938 886.171875 1877.570312 902.988281 1841.769531 911.390625 C 1777 926.339844 1731.230469 917.621094 1710.679688 927.269531 C 1690.128906 936.929688 1624.738281 1021.308594 1624.738281 1021.308594 C 1624.738281 1021.308594 1698.839844 1068.328125 1734.339844 1097.601562 C 1769.839844 1127.179688 1797.550781 1157.070312 1811.25 1159.871094 C 1824.640625 1162.671875 1860.140625 1154.269531 1882.25 1164.230469 C 1904.351562 1173.878906 1947.949219 1224.949219 1947.949219 1224.949219 C 1947.949219 1224.949219 1890.339844 1186.03125 1871.96875 1178.550781 C 1853.289062 1170.769531 1822.460938 1187.890625 1805.960938 1183.851562 C 1789.140625 1179.800781 1750.21875 1152.089844 1750.21875 1152.089844 C 1736.519531 1200.660156 1725.308594 1220.28125 1772.640625 1278.5 C 1702.578125 1247.371094 1727.488281 1166.410156 1719.089844 1141.5 C 1715.96875 1132.78125 1706.320312 1123.128906 1685.148438 1108.808594 C 1620.378906 1064.28125 1485.550781 1001.378906 1440.398438 999.199219 C 1395.261719 996.710938 1332.359375 1032.210938 1305.269531 1055.25 C 1285.03125 1072.371094 1210.609375 1136.828125 1173.25 1169.210938 C 1251.089844 1220.898438 1232.089844 1304.660156 1249.53125 1328.320312 C 1264.789062 1349.191406 1362.871094 1342.339844 1385.601562 1427.960938 C 1359.761719 1385.621094 1308.691406 1369.429688 1260.429688 1364.441406 C 1211.539062 1359.460938 1213.101562 1335.488281 1201.578125 1288.46875 C 1194.421875 1258.578125 1184.140625 1227.441406 1141.800781 1214.671875 C 1122.800781 1318.050781 1194.730469 1362.578125 1153.628906 1469.070312 C 1084.808594 1646.550781 1032.808594 1804.730469 1085.75 2298.878906 C 892.074219 2122.328125 762.539062 2098.039062 774.0625 2018.019531 C 784.027344 1947.339844 838.828125 1777.011719 890.207031 1657.761719 C 907.644531 1617.589844 924.769531 1582.71875 940.960938 1551.269531 C 949.988281 1508.921875 932.242188 1475.921875 911.378906 1450.378906 C 866.851562 1396.199219 848.171875 1384.058594 817.964844 1310.890625 C 817.964844 1310.890625 862.804688 1370.671875 875.257812 1374.71875 C 887.714844 1378.460938 959.328125 1307.460938 961.820312 1299.679688 C 963.378906 1294.378906 983.308594 1261.070312 994.828125 1204.398438 C 1003.859375 1224.320312 985.796875 1294.070312 979.257812 1307.460938 C 954.972656 1358.21875 914.179688 1381.570312 911.378906 1394.328125 C 910.445312 1399.011719 920.097656 1407.101562 934.109375 1417.691406 C 949.988281 1429.519531 971.160156 1444.46875 989.222656 1461.589844 C 1002.921875 1435.441406 1015.691406 1410.839844 1026.28125 1385.929688 "/>
<path fill-rule="nonzero" fill="rgb(100%, 100%, 100%)" fill-opacity="1" d="M 2061.601562 807.710938 C 2017.691406 848.808594 1975.351562 862.820312 1930.511719 829.5 C 1960.710938 812.378906 1994.03125 805.210938 2033.261719 807.078125 C 2000.570312 799.921875 1961.339844 807.078125 1931.441406 822.960938 C 1961.339844 762.871094 2019.871094 791.828125 2061.601562 807.710938 Z M 1688.570312 761.308594 C 1697.910156 847.25 1677.359375 907.96875 1600.449219 930.699219 C 1606.988281 880.878906 1627.230469 836.660156 1663.660156 793.691406 C 1627.230469 824.519531 1601.390625 875.898438 1593.601562 923.851562 C 1550.628906 837.289062 1634.699219 795.558594 1688.570312 761.308594 Z M 1658.058594 737.019531 C 1630.03125 790.269531 1594.21875 817.050781 1541.289062 800.230469 C 1564.328125 774.078125 1593.289062 756.640625 1630.96875 745.738281 C 1597.960938 749.480469 1563.089844 768.78125 1540.039062 793.691406 C 1548.761719 726.75 1613.53125 735.78125 1658.058594 737.019531 Z M 1710.371094 750.71875 C 1725 827.011719 1759.25 874.03125 1831.488281 873.089844 C 1812.808594 831.988281 1783.539062 799.300781 1740.570312 771.589844 C 1780.429688 788.710938 1816.230469 826.078125 1835.539062 865.621094 C 1849.859375 779.371094 1766.101562 765.671875 1710.371094 750.71875 Z M 894.253906 1058.980469 C 887.402344 1135.890625 907.019531 1190.070312 976.457031 1208.761719 C 969.605469 1164.539062 950.613281 1125.308594 917.296875 1087.320312 C 950.613281 1114.410156 974.589844 1159.871094 982.371094 1202.839844 C 1019.429688 1124.371094 943.140625 1088.558594 894.253906 1058.980469 Z M 1844.878906 683.46875 C 1838.648438 743.25 1852.980469 785.289062 1906.53125 800.859375 C 1901.859375 766.289062 1887.539062 735.78125 1862.320312 705.890625 C 1887.851562 727.371094 1905.910156 762.871094 1911.199219 796.179688 C 1941.101562 735.78125 1882.558594 707.128906 1844.878906 683.46875 Z M 1185.390625 890.21875 C 1229.601562 931.320312 1246.421875 972.421875 1216.21875 1019.441406 C 1196.910156 990.480469 1187.570312 957.789062 1186.941406 918.550781 C 1181.960938 951.558594 1191.621094 990.171875 1209.679688 1019.128906 C 1147.398438 993.28125 1172.621094 932.878906 1185.390625 890.21875 Z M 1460.949219 1195.988281 C 1550.320312 1212.800781 1616.019531 1195.988281 1646.21875 1116.898438 C 1593.289062 1119.699219 1545.03125 1137.761719 1496.761719 1172.328125 C 1532.261719 1136.519531 1588.308594 1113.480469 1639.679688 1109.429688 C 1551.878906 1056.808594 1501.121094 1142.121094 1460.949219 1195.988281 Z M 1173.558594 826.699219 C 1212.480469 883.371094 1256.691406 909.210938 1314.921875 883.058594 C 1285.03125 856.28125 1249.839844 840.398438 1205.320312 833.238281 C 1243.621094 832.929688 1285.648438 850.359375 1315.539062 875.589844 C 1296.238281 800.539062 1224 819.230469 1173.558594 826.699219 Z M 1893.140625 1064.28125 C 1829.621094 1110.671875 1772.328125 1122.191406 1719.398438 1071.75 C 1761.429688 1054.308594 1805.648438 1050.269531 1856.398438 1059.300781 C 1815.300781 1044.660156 1762.988281 1047.460938 1721.578125 1063.339844 C 1770.460938 989.859375 1841.460938 1037.191406 1893.140625 1064.28125 Z M 1698.21875 669.769531 C 1721.578125 729.859375 1756.140625 763.179688 1814.988281 751.96875 C 1793.5 721.140625 1764.859375 698.71875 1725.941406 682.53125 C 1760.808594 690.628906 1795.371094 715.851562 1817.171875 745.121094 C 1816.230469 672.570312 1745.859375 673.808594 1698.21875 669.769531 Z M 2085.878906 1125.621094 C 2020.179688 1182.601562 1957.910156 1200.351562 1894.699219 1149.589844 C 1939.851562 1126.550781 1988.109375 1118.148438 2044.78125 1123.441406 C 1998.078125 1110.980469 1940.78125 1119.078125 1896.570312 1140.25 C 1943.589844 1054.628906 2026.410156 1100.398438 2085.878906 1125.621094 Z M 830.734375 1154.269531 C 865.917969 1212.800781 871.210938 1262.941406 823.882812 1304.96875 C 812.050781 1266.980469 812.050781 1228.679688 823.570312 1185.710938 C 807.691406 1219.96875 806.445312 1265.109375 816.722656 1302.171875 C 757.25 1254.53125 803.332031 1196.609375 830.734375 1154.269531 Z M 1588.621094 1254.53125 C 1651.210938 1262.621094 1696.039062 1248.300781 1713.789062 1192.25 C 1677.359375 1196.609375 1644.671875 1210.621094 1612.589844 1236.78125 C 1635.640625 1210.308594 1673.621094 1192.25 1709.121094 1187.269531 C 1646.21875 1154.578125 1614.460938 1215.609375 1588.621094 1254.53125 Z M 1464.070312 1319.609375 C 1425.148438 1362.890625 1384.980469 1380.011719 1338.898438 1351.371094 C 1366.921875 1332.371094 1398.371094 1322.71875 1436.671875 1321.46875 C 1404.289062 1317.109375 1366.921875 1327.078125 1339.210938 1345.140625 C 1363.5 1284.109375 1422.351562 1307.769531 1464.070312 1319.609375 Z M 1490.230469 820.46875 C 1492.71875 880.570312 1475.28125 921.671875 1420.789062 933.5 C 1427.640625 899.25 1444.140625 869.671875 1471.539062 841.640625 C 1444.449219 861.261719 1424.210938 895.511719 1416.429688 928.519531 C 1390.578125 866.238281 1451.300781 841.328125 1490.230469 820.46875 Z M 1881.621094 1281 C 1832.429688 1299.371094 1793.808594 1296.25 1769.21875 1254.21875 C 1799.109375 1250.789062 1828.070312 1256.078125 1858.890625 1271.03125 C 1835.230469 1254.21875 1801.601562 1246.738281 1772.019531 1249.550781 C 1816.550781 1211.25 1853.601562 1254.21875 1881.621094 1281 Z M 1567.449219 645.789062 C 1555.300781 729.238281 1521.050781 781.550781 1442.578125 784.039062 C 1460.949219 738.890625 1491.160156 702.148438 1536 670.078125 C 1493.960938 690.320312 1457.21875 732.351562 1437.910156 776.261719 C 1418.300781 683.46875 1508.28125 664.78125 1567.449219 645.789062 Z M 2078.101562 1282.550781 C 2019.25 1295.628906 1975.96875 1285.671875 1954.480469 1234.289062 C 1989.359375 1234.910156 2021.429688 1245.808594 2053.808594 1267.609375 C 2029.839844 1244.878906 1992.46875 1230.859375 1958.53125 1229 C 2015.199219 1192.558594 2050.390625 1247.679688 2078.101562 1282.550781 Z M 1426.078125 1217.789062 C 1341.390625 1259.820312 1271.328125 1261.691406 1219.328125 1191.320312 C 1272.570312 1179.179688 1325.511719 1183.53125 1383.421875 1204.398438 C 1337.960938 1178.550781 1275.691406 1171.699219 1223.378906 1181.980469 C 1296.238281 1104.761719 1370.660156 1175.441406 1426.078125 1217.789062 Z M 1531.328125 1085.449219 C 1457.53125 1139.628906 1390.578125 1152.710938 1328.929688 1094.171875 C 1378.128906 1073.621094 1429.511719 1068.949219 1488.671875 1079.539062 C 1440.71875 1062.410156 1380 1065.839844 1331.421875 1084.519531 C 1388.410156 998.578125 1471.230469 1053.691406 1531.328125 1085.449219 Z M 2062.21875 926.339844 C 1990.921875 962.460938 1931.441406 964.328125 1886.921875 905.171875 C 1932.070312 894.578125 1976.898438 898 2026.101562 915.128906 C 1987.488281 893.640625 1934.558594 888.039062 1890.339844 897.070312 C 1951.371094 831.371094 2014.890625 890.839844 2062.21875 926.339844 Z M 1038.109375 835.730469 C 1101.011719 870.910156 1132.140625 914.191406 1110.660156 977.398438 C 1079.828125 949.070312 1059.589844 913.878906 1047.761719 868.421875 C 1051.191406 907.96875 1073.609375 950.308594 1102.871094 978.960938 C 1022.851562 966.511719 1034.988281 888.96875 1038.109375 835.730469 Z M 1026.898438 995.148438 C 1067.691406 1054.308594 1113.769531 1081.398438 1174.800781 1054 C 1143.660156 1026.289062 1106.609375 1009.171875 1060.21875 1001.691406 C 1100.070312 1001.378906 1144.289062 1019.75 1175.421875 1046.21875 C 1155.5 967.75 1079.519531 987.058594 1026.898438 995.148438 Z M 883.355469 1176.058594 C 868.097656 1240.828125 878.375 1289.089844 935.042969 1313.691406 C 934.730469 1275.078125 923.210938 1239.269531 899.546875 1202.839844 C 924.457031 1229.929688 939.402344 1271.648438 940.960938 1309.019531 C 982.0625 1246.738281 921.652344 1207.199219 883.355469 1176.058594 Z M 1410.820312 665.410156 C 1412.070312 728.621094 1393.078125 771.269531 1335.78125 782.800781 C 1343.878906 746.988281 1361.320312 716.46875 1390.578125 687.199219 C 1361.941406 707.441406 1340.140625 742.941406 1331.421875 777.5 C 1305.578125 711.800781 1369.410156 686.890625 1410.820312 665.410156 Z M 1132.769531 776.261719 C 1159.859375 820.78125 1163.898438 859.390625 1127.78125 891.460938 C 1118.75 862.820312 1118.441406 833.238281 1127.160156 800.230469 C 1115.019531 826.699219 1114.078125 861.261719 1122.488281 889.601562 C 1076.410156 853.171875 1111.898438 808.640625 1132.769531 776.261719 Z M 983.929688 886.480469 C 1013.199219 956.859375 1010.710938 1013.210938 951.546875 1051.511719 C 944.695312 1007.921875 950.921875 965.570312 970.851562 919.800781 C 947.808594 955.300781 938.78125 1004.808594 944.074219 1047.460938 C 886.15625 984.878906 946.875 928.828125 983.929688 886.480469 Z M 1939.539062 1010.71875 C 1880.070312 1019.441406 1837.410156 1006.671875 1819.660156 953.738281 C 1854.21875 957.160156 1885.359375 970.238281 1916.5 994.21875 C 1894.078125 969.621094 1857.648438 953.121094 1824.019531 948.761719 C 1883.179688 916.691406 1914.320312 974.289062 1939.539062 1010.71875 Z M 1149.578125 757.890625 C 1198.78125 796.808594 1244.238281 807.390625 1288.140625 768.78125 C 1254.820312 753.53125 1219.640625 749.171875 1179.160156 754.769531 C 1212.171875 744.179688 1253.890625 748.230469 1286.589844 761.929688 C 1249.839844 701.839844 1191.621094 737.648438 1149.578125 757.890625 Z M 1687.640625 650.769531 C 1656.808594 702.460938 1620.070312 727.679688 1567.761719 708.058594 C 1592.359375 683.160156 1621.941406 666.960938 1660.238281 658.25 C 1626.921875 660.109375 1591.421875 677.859375 1566.820312 701.53125 C 1579.28125 635.199219 1643.421875 647.351562 1687.640625 650.769531 Z M 1785.71875 953.738281 C 1757.699219 1006.988281 1722.199219 1033.761719 1668.949219 1016.949219 C 1692.308594 990.789062 1720.949219 973.359375 1758.941406 962.460938 C 1725.621094 966.191406 1691.058594 985.808594 1667.710938 1010.410156 C 1676.738281 943.78125 1741.5 952.488281 1785.71875 953.738281 Z M 1471.851562 921.359375 C 1511.089844 964.640625 1551.25 981.449219 1597.339844 952.488281 C 1569 933.5 1537.550781 924.160156 1499.261719 923.21875 C 1531.640625 918.550781 1569 928.519531 1597.03125 945.960938 C 1572.121094 885.238281 1513.269531 909.210938 1471.851562 921.359375 Z M 953.726562 1063.03125 C 992.648438 1116.898438 1035.621094 1140.558594 1091.039062 1114.101562 C 1061.769531 1089.191406 1027.519531 1074.550781 984.550781 1068.640625 C 1021.289062 1067.390625 1062.398438 1083.269531 1091.351562 1106.941406 C 1071.429688 1035.320312 1002.300781 1054.628906 953.726562 1063.03125 "/>
<path fill-rule="nonzero" fill="rgb(18.431091%, 18.431091%, 23.535156%)" fill-opacity="1" d="M 2027.660156 1391.53125 L 1910.578125 1395.890625 C 1910.578125 1395.890625 1882.871094 1368.179688 1856.398438 1364.128906 C 1829.621094 1359.769531 1789.769531 1358.21875 1789.769531 1358.21875 L 1782.609375 1307.460938 C 1782.609375 1307.460938 1758.628906 1329.261719 1746.800781 1361.640625 C 1742.75 1362.261719 1738.390625 1363.199219 1734.339844 1364.441406 L 1719.710938 1282.550781 C 1719.710938 1282.550781 1683.898438 1304.660156 1681.101562 1432.320312 C 1679.539062 1502.070312 1677.980469 1555.320312 1672.070312 1598.601562 C 1660.859375 1678.929688 1587.371094 1763 1506.421875 1839.910156 C 1451.921875 1891.601562 1394.011719 1939.859375 1349.789062 1981.589844 C 1276.621094 2050.089844 1223.691406 2131.359375 1231.46875 2285.800781 C 1164.839844 2286.421875 1112.53125 2251.550781 1103.191406 2175.890625 C 1097.578125 2131.980469 1119.378906 2093.058594 1129.960938 2083.410156 C 1144.910156 2069.078125 1028.769531 2111.429688 1062.398438 2238.46875 C 1096.019531 2365.199219 1261.050781 2391.671875 1261.050781 2391.671875 L 1909.648438 2391.671875 C 1909.648438 2391.671875 1917.121094 2340.921875 1876.949219 2333.75 C 1836.46875 2326.898438 1830.25 2354.929688 1829.308594 2298.570312 C 1828.378906 2242.519531 1827.441406 2181.800781 1843.949219 2105.199219 C 1893.460938 2051.960938 1960.398438 1967.578125 1971.921875 1888.800781 C 1990.601562 1759.890625 1932.378906 1686.089844 1917.429688 1635.03125 C 1902.480469 1583.960938 1898.75 1548.78125 1923.039062 1536.320312 C 1947.628906 1523.871094 1999.628906 1531.03125 2021.121094 1486.191406 C 2042.601562 1441.039062 2027.660156 1391.53125 2027.660156 1391.53125 "/>
<path fill-rule="nonzero" fill="rgb(100%, 100%, 100%)" fill-opacity="1" d="M 1760.808594 2053.199219 C 1773.261719 2106.761719 1763.921875 2161.25 1741.5 2221.660156 C 1733.410156 2243.769531 1727.179688 2261.511719 1726.871094 2285.800781 C 1725.941406 2331.261719 1738.699219 2360.53125 1738.699219 2360.53125 C 1738.699219 2360.53125 1761.121094 2356.789062 1767.039062 2366.761719 C 1773.261719 2376.410156 1768.589844 2391.359375 1752.089844 2394.160156 C 1735.589844 2396.960938 1718.148438 2395.089844 1716.589844 2394.46875 C 1715.039062 2394.160156 1704.761719 2389.179688 1698.53125 2363.328125 C 1692.621094 2337.488281 1673.308594 2322.859375 1674.25 2309.46875 C 1675.800781 2283.308594 1685.769531 2226.640625 1626.921875 2199.238281 C 1648.710938 2216.988281 1673.621094 2248.128906 1657.738281 2290.160156 C 1642.179688 2331.261719 1621 2349.628906 1606.058594 2357.730469 C 1621.941406 2360.839844 1635.949219 2359.289062 1655.558594 2358.660156 C 1680.160156 2357.730469 1691.058594 2377.03125 1692 2386.691406 C 1692.621094 2396.339844 1684.828125 2395.71875 1676.738281 2395.71875 C 1610.421875 2395.71875 1543.78125 2395.71875 1477.460938 2395.71875 C 1416.738281 2395.71875 1334.851562 2388.871094 1294.988281 2336.558594 C 1263.539062 2295.140625 1266.351562 2236.921875 1313.988281 2198.308594 C 1331.421875 2184.289062 1352.601562 2175.578125 1374.390625 2174.328125 C 1395.878906 2173.398438 1401.480469 2201.421875 1381.550781 2207.960938 C 1371.28125 2211.070312 1356.640625 2212.320312 1337.648438 2228.199219 C 1285.960938 2272.101562 1345.75 2374.851562 1426.699219 2325.96875 C 1409.890625 2225.078125 1429.511719 2119.21875 1519.179688 2057.25 C 1564.949219 2025.800781 1596.710938 2029.230469 1585.191406 1950.761719 C 1576.480469 1891.289062 1581.148438 1852.988281 1594.21875 1821.539062 C 1618.199219 1769.230469 1612.28125 1750.859375 1636.261719 1801.300781 C 1650.890625 1755.21875 1655.25 1781.371094 1655.878906 1806.601562 C 1671.441406 1809.710938 1693.550781 1814.070312 1707.558594 1817.179688 C 1739.949219 1824.96875 1731.230469 1843.648438 1750.53125 1848.011719 C 1756.449219 1849.25 1762.679688 1851.121094 1766.410156 1852.988281 C 1772.328125 1855.480469 1777.929688 1855.789062 1779.179688 1866.070312 C 1780.738281 1876.03125 1778.25 1895.648438 1777 1900.320312 C 1773.890625 1913.398438 1736.828125 1921.488281 1730.609375 1935.191406 C 1712.238281 1974.429688 1750.21875 2006.5 1760.808594 2053.199219 "/>
<path fill-rule="nonzero" fill="rgb(18.431091%, 18.431091%, 23.535156%)" fill-opacity="1" d="M 2205.140625 1056.179688 C 2204.519531 1054.628906 2203.578125 1053.378906 2202.03125 1052.128906 C 2211.679688 1055.871094 2224.449219 1062.101562 2224.449219 1062.101562 C 2229.429688 1065.839844 2239.078125 1065.210938 2245.929688 1064.28125 C 2247.800781 1066.148438 2250.910156 1068.949219 2253.089844 1069.878906 C 2255.898438 1071.128906 2261.5 1068.011719 2265.550781 1068.640625 C 2259.941406 1080.160156 2245.929688 1103.199219 2244.691406 1104.128906 C 2242.820312 1105.378906 2221.019531 1110.980469 2215.109375 1113.160156 C 2214.171875 1113.160156 2213.550781 1113.789062 2212.929688 1114.101562 C 2202.339844 1108.488281 2187.078125 1121.261719 2186.769531 1129.671875 C 2189.570312 1123.128906 2200.78125 1114.71875 2208.878906 1116.589844 C 2208.261719 1117.210938 2207.628906 1117.828125 2207.011719 1118.460938 C 2204.519531 1119.699219 2202.339844 1120.949219 2200.46875 1122.820312 C 2197.359375 1126.238281 2195.488281 1134.03125 2201.398438 1139.320312 C 2199.851562 1133.089844 2200.78125 1128.730469 2203.578125 1125.621094 C 2205.140625 1123.75 2209.808594 1121.261719 2215.109375 1119.699219 C 2220.398438 1117.828125 2226.628906 1116.589844 2229.121094 1118.460938 C 2232.230469 1120.640625 2230.050781 1126.859375 2230.050781 1127.179688 C 2235.03125 1123.128906 2233.480469 1116.589844 2231.609375 1115.03125 C 2230.359375 1114.101562 2228.488281 1113.789062 2226.628906 1113.480469 C 2236.589844 1111.300781 2250.910156 1109.121094 2250.910156 1109.121094 C 2261.191406 1109.121094 2275.511719 1092.609375 2275.511719 1092.609375 L 2275.511719 1091.371094 C 2281.429688 1099.148438 2289.210938 1109.121094 2295.128906 1112.851562 C 2302.910156 1118.148438 2310.699219 1114.101562 2310.699219 1114.101562 C 2310.699219 1114.101562 2330.308594 1124.058594 2341.210938 1148.660156 C 2352.109375 1173.261719 2333.738281 1247.988281 2333.738281 1247.988281 C 2333.738281 1247.988281 2348.371094 1210.941406 2356.46875 1179.800781 C 2356.78125 1205.949219 2351.800781 1233.671875 2351.800781 1233.671875 C 2351.800781 1233.671875 2368.929688 1190.378906 2371.421875 1161.121094 C 2389.46875 1192.558594 2422.480469 1251.410156 2422.480469 1251.410156 C 2422.480469 1251.410156 2418.429688 1234.289062 2413.761719 1217.46875 C 2432.761719 1247.371094 2461.398438 1298.738281 2461.398438 1298.738281 C 2461.398438 1298.738281 2449.261719 1225.261719 2406.910156 1166.410156 C 2364.25 1107.871094 2335.300781 1088.25 2331.25 1078.910156 C 2328.449219 1072.371094 2329.070312 1050.578125 2329.691406 1037.808594 C 2366.738281 1057.429688 2396.949219 1039.988281 2396.949219 1039.988281 C 2396.949219 1039.988281 2388.230469 1035.628906 2377.328125 1030.03125 C 2405.359375 1029.089844 2426.21875 1012.898438 2426.21875 1012.898438 C 2426.21875 1012.898438 2419.058594 1011.339844 2410.339844 1009.789062 C 2440.851562 997.328125 2452.371094 969.621094 2452.371094 969.621094 C 2452.371094 969.621094 2440.851562 969.621094 2425.28125 971.488281 C 2465.140625 942.21875 2470.121094 897.378906 2470.121094 897.378906 C 2470.121094 897.378906 2463.890625 898.941406 2454.859375 901.429688 C 2477.589844 865.621094 2478.21875 829.5 2478.21875 829.5 C 2478.21875 829.5 2472.609375 831.371094 2463.578125 835.109375 C 2476.351562 800.539062 2472.609375 767.851562 2472.609375 767.851562 C 2472.609375 767.851562 2454.238281 782.171875 2435.25 798.988281 C 2442.410156 772.519531 2442.71875 739.828125 2442.71875 739.828125 C 2442.71875 739.828125 2419.371094 743.871094 2389.789062 784.96875 C 2360.210938 825.769531 2321.589844 888.039062 2299.179688 924.78125 C 2291.390625 937.859375 2281.738281 946.890625 2272.710938 953.121094 C 2257.449219 943.78125 2232.851562 938.480469 2215.109375 951.25 C 2192.058594 968.371094 2198.910156 992.660156 2198.910156 992.660156 C 2192.378906 1001.378906 2183.339844 1027.539062 2183.339844 1027.539062 C 2183.339844 1027.539062 2198.289062 1015.699219 2216.96875 1005.429688 C 2223.820312 1006.050781 2230.050781 1004.808594 2236.589844 1003.871094 C 2240.640625 1012.589844 2246.238281 1025.980469 2246.550781 1031.578125 C 2246.550781 1035.320312 2245.929688 1039.988281 2245 1044.351562 C 2237.519531 1048.710938 2223.820312 1054.628906 2222.269531 1054.628906 C 2220.089844 1054.628906 2199.21875 1046.53125 2193 1044.96875 C 2192.058594 1044.660156 2191.441406 1044.660156 2190.511719 1044.351562 C 2184.898438 1033.761719 2165.289062 1035.628906 2160.300781 1042.480469 C 2166.21875 1038.429688 2180.230469 1038.121094 2185.519531 1044.351562 C 2184.898438 1044.351562 2183.96875 1044.351562 2183.03125 1044.660156 C 2180.539062 1044.039062 2177.738281 1044.039062 2175.25 1044.660156 C 2170.890625 1045.601562 2164.96875 1050.890625 2166.53125 1058.359375 C 2169.019531 1052.449219 2172.140625 1049.328125 2176.179688 1048.398438 C 2178.671875 1048.089844 2183.660156 1048.710938 2189.261719 1050.269531 C 2194.550781 1051.820312 2200.46875 1054.308594 2201.398438 1057.429688 C 2202.648438 1060.851562 2197.050781 1064.898438 2197.050781 1064.898438 C 2203.578125 1064.589844 2205.761719 1058.359375 2205.140625 1056.179688 "/>
</svg>
